<svg xmlns="http://www.w3.org/2000/svg" viewBox="0 0 1133.52 1133.52"><defs><style>.cls-1{fill:#3d3a3b;}.cls-2{fill:#fff;}</style></defs><g id="Layer_2" data-name="Layer 2"><g id="Layer_1-2" data-name="Layer 1"><rect class="cls-1" width="1133.52" height="1133.52"/><path class="cls-2" d="M843.14,187.58q-14.39,21.33-35.6,52t-46.39,68.2q-25.2,37.53-51.6,75.88t-51.2,75.44Q633.56,496.2,614,525.18t-32.39,48.17q-12.81,19.18-14.4,21.74Q564,590,550,569.94t-34-49.87q-20-29.84-44.8-66.07t-50.8-74.17q-26-37.93-51.19-74.6t-45.6-66.92q-20.4-30.26-34-51.15T272,160.3V809.08h18.74l79.64-317.14a71.7,71.7,0,0,0-1.59-14.5,67.93,67.93,0,0,1-1.6-9.38q1.59,3.42,16.4,25.15t36,52.86q21.19,31.13,45.2,67.35t45.6,67.78c11.27,16.45,21.27,31.1,30.08,44.08l17.31,247.94h26l17.88-256.13,27.86-48.89L760,468.06a71.47,71.47,0,0,1-1.6,9.38,71,71,0,0,0-1.6,14.5l79.64,317.14h25.16V160.3Q857.53,166.27,843.14,187.58Z"/></g></g></svg>